<svg width="26" height="20" viewBox="0 0 26 20" fill="none" xmlns="http://www.w3.org/2000/svg">
<path d="M13.0312 5.15234C13.1172 5.06641 13.2461 5.02344 13.375 5.02344C13.4609 5.02344 13.5898 5.06641 13.6758 5.15234L21.625 11.6406V18.6875C21.625 19.0742 21.2812 19.375 20.9375 19.375H16.082C15.7383 19.375 15.3945 19.0742 15.3945 18.6875V14.5625C15.3945 14.2188 15.0938 13.875 14.707 13.875H11.957C11.6133 13.875 11.2695 14.2188 11.2695 14.5625V18.6875C11.2695 19.0742 10.9688 19.375 10.625 19.375H5.8125C5.42578 19.375 5.125 19.0742 5.125 18.6875V11.6836L13.0312 5.15234ZM25.5352 9.57812C25.6641 9.66406 25.75 9.83594 25.75 9.96484C25.75 10.0938 25.707 10.2227 25.6211 10.3086L24.5039 11.6406C24.418 11.7695 24.2891 11.8125 24.1172 11.8125C23.9883 11.8125 23.8594 11.7695 23.7734 11.6836L13.6758 3.39062C13.5898 3.30469 13.4609 3.26172 13.375 3.26172C13.2461 3.26172 13.1172 3.30469 13.0312 3.39062L2.93359 11.6836C2.84766 11.7695 2.71875 11.8125 2.58984 11.8125C2.41797 11.8125 2.28906 11.7695 2.20312 11.6406L1.08594 10.3086C1.04297 10.2227 0.957031 10.0938 0.957031 9.96484C0.957031 9.83594 1.04297 9.66406 1.17188 9.57812L12.043 0.597656C12.3867 0.339844 12.8594 0.167969 13.375 0.167969C13.8477 0.167969 14.3203 0.339844 14.6641 0.597656L18.5312 3.77734V0.683594C18.5312 0.382812 18.7461 0.167969 19.0469 0.167969H21.4531C21.7109 0.167969 21.9688 0.382812 21.9688 0.683594V6.61328L25.5352 9.57812Z" fill="black"/>
</svg>
