<svg width="85" height="97" viewBox="0 0 85 97" fill="none" xmlns="http://www.w3.org/2000/svg">
<path d="M75.8929 78.8125C75.8929 80.4847 74.5318 81.8437 72.8571 81.8437H12.1429C10.4682 81.8437 9.10714 80.4847 9.10714 78.8125V18.1875C9.10714 16.5153 10.4682 15.1562 12.1429 15.1562H72.8571C74.5318 15.1562 75.8929 16.5153 75.8929 18.1875V78.8125ZM72.8571 6.0625H12.1429C5.43646 6.0625 0 11.491 0 18.1875V78.8125C0 85.509 5.43646 90.9375 12.1429 90.9375H72.8571C79.5635 90.9375 85 85.509 85 78.8125V18.1875C85 11.491 79.5559 6.0625 72.8571 6.0625ZM60.5423 43.9531H46.8815V30.3125C46.8815 27.8016 44.8451 25.7656 42.5 25.7656C40.1549 25.7656 37.7744 27.7915 37.7744 30.3125V43.9531H24.1137C21.761 43.9531 19.5601 45.979 19.5601 48.5C19.5601 51.021 21.761 53.0469 24.1137 53.0469H37.6024V66.6875C37.6024 69.1984 39.6414 71.2344 42.156 71.2344C44.6705 71.2344 46.54 69.1984 46.54 66.6875V53.0469H60.2007C62.7153 53.0469 64.5823 51.0109 64.5823 48.5C64.5823 45.9891 63.2365 43.9531 60.5423 43.9531Z" fill="black"/>
</svg>
