<svg width="40" height="39" viewBox="0 0 40 39" fill="none" xmlns="http://www.w3.org/2000/svg">
<path d="M32.3072 22.3637H23.2484V31.3443C23.2484 32.2514 22.5163 32.9771 21.6013 32.9771H18.7647C17.8497 32.9771 17.1176 32.2514 17.1176 31.3443V22.3637H8.05882C7.14378 22.3637 6.41176 21.638 6.41176 20.7309V17.9188C6.41176 17.0117 7.14378 16.286 8.05882 16.286H17.1176V7.29935C17.1176 6.39223 17.8497 5.66652 18.7647 5.66652H21.6013C22.5163 5.66652 23.2484 6.39223 23.2484 7.29935V16.2799H32.3072C33.2222 16.2799 33.9542 17.0056 33.9542 17.9127V20.7248C33.9542 21.5896 33.2222 22.3577 32.3072 22.3637ZM20.186 0C9.43137 0 0.738556 8.61771 0.738556 19.2734C0.738556 29.9292 9.43137 38.5529 20.186 38.5529C30.9407 38.5529 39.6274 29.9352 39.6274 19.2734C39.6274 8.61166 30.9346 0 20.186 0Z" fill="#1E1E1E"/>
</svg>
