<svg width="18" height="22" viewBox="0 0 18 22" fill="none" xmlns="http://www.w3.org/2000/svg">
<path d="M8.49023 1.28125C8.53125 1.44531 9.1875 5.13672 9.1875 6.53125C9.1875 8.70508 8.03906 10.2227 6.35742 10.8379L6.89062 20.5996C6.89062 21.1738 6.43945 21.625 5.90625 21.625H3.28125C2.70703 21.625 2.25586 21.1738 2.29688 20.5996L2.78906 10.8379C1.10742 10.2227 0 8.70508 0 6.53125C0 5.13672 0.615234 1.44531 0.65625 1.28125C0.779297 0.419922 2.50195 0.419922 2.625 1.32227V7.10547C2.66602 7.22852 3.24023 7.22852 3.28125 7.10547C3.32227 6.08008 3.56836 1.4043 3.60938 1.28125C3.73242 0.419922 5.41406 0.419922 5.53711 1.28125C5.57812 1.4043 5.82422 6.08008 5.86523 7.10547C5.90625 7.22852 6.48047 7.22852 6.52148 7.10547V1.32227C6.64453 0.419922 8.36719 0.419922 8.49023 1.28125ZM13.4121 12.9707C6.97266 7.9668 12.6738 0.625 16.0781 0.625C16.6113 0.625 17.0625 1.07617 17.0625 1.60938V20.6406C17.0625 21.2148 16.6113 21.625 16.0781 21.625H13.7812C13.207 21.625 12.7148 21.1328 12.7969 20.5586L13.4121 12.9707Z" fill="black"/>
</svg>
